<svg width="109" height="82" viewBox="0 0 109 82" fill="none" xmlns="http://www.w3.org/2000/svg">
<path d="M56.3864 0H52.5792C23.8652 0 0.5 23.1045 0.5 51.491V56.5296C0.5 62.4785 5.40058 67.3224 11.4192 67.3224H31.913L32.4991 67.7654C38.3256 72.1857 40.0839 78.7919 40.5715 81.4256L40.6799 82H43.7581L43.6251 81.187C43.5069 80.447 43.2804 79.3128 42.8765 77.9643L45.9252 75.6811C46.6689 76.4113 47.3782 77.1805 48.0381 77.9691L43.9798 82H48.2647L49.8851 80.3935C50.1707 80.8073 50.4466 81.2308 50.7174 81.6641L50.9243 82H54.4261L53.8154 80.9533C53.2687 80.0186 52.6826 79.1034 52.062 78.232L55.3176 75.0044L58.5732 78.232C57.9477 79.1083 57.3616 80.0235 56.8198 80.9533L56.2091 82H59.7109L59.9177 81.6641C60.1886 81.226 60.4644 80.8024 60.7501 80.3935L62.3705 82H66.6554L62.5971 77.9691C63.262 77.1756 63.9712 76.4113 64.71 75.6811L67.7587 77.9643C67.3548 79.3079 67.1282 80.4422 67.01 81.187L66.8771 82H69.9504L70.0587 81.4256C70.5463 78.7919 72.3145 72.1857 78.1361 67.7654L78.7222 67.3224H97.5808C103.599 67.3224 108.5 62.4785 108.5 56.5296V51.491C108.48 23.1045 85.1151 0 56.3864 0ZM31.8046 35.7959C31.8046 33.0648 34.0456 30.8449 36.8136 30.8449H73.4276C76.1906 30.8449 78.4365 33.06 78.4365 35.7959V57.2014C78.2395 57.1722 78.0425 57.1576 77.8258 57.1576H31.8046V35.7959ZM41.793 75.0044C41.1133 73.4271 40.2957 71.952 39.355 70.5987C40.8572 71.509 42.2904 72.5216 43.635 73.6267L41.793 75.0044ZM46.1173 71.7622C44.5757 70.438 42.9208 69.2356 41.2019 68.1792C40.7193 67.8822 40.2267 67.595 39.7244 67.3175H46.137L48.9493 69.6396L46.1124 71.7622H46.1173ZM50.1806 75.832C49.5994 75.1504 48.9936 74.4884 48.3583 73.8506L51.3429 71.6161L53.0274 73.0084L50.1806 75.8369V75.832ZM50.875 67.3175H59.7355L55.3077 70.9735L50.88 67.3175H50.875ZM60.43 75.832L57.5832 73.0036L59.2676 71.6113L62.2523 73.8458C61.6169 74.4835 61.0111 75.1504 60.43 75.8271V75.832ZM64.4933 71.7622L61.6563 69.6396L64.4736 67.3175H70.8812C70.3838 67.595 69.8864 67.8822 69.4037 68.1792C67.6799 69.2404 66.0299 70.4429 64.4883 71.7622H64.4933ZM68.8176 75.0044L66.9756 73.6267C68.3201 72.5216 69.7534 71.509 71.2556 70.5987C70.3149 71.9569 69.4973 73.4271 68.8127 75.0044H68.8176ZM77.8258 64.8688H31.1545C29.6819 64.8688 28.4949 63.681 28.4949 62.24C28.4949 60.799 29.6819 59.6111 31.1545 59.6111H77.8258C79.2837 59.6111 80.4756 60.7844 80.4756 62.24C80.4756 63.6956 79.2837 64.8688 77.8258 64.8688ZM105.988 51.491C105.988 51.491 105.988 51.4764 105.988 51.4715C105.988 51.4764 105.988 51.4861 105.988 51.491Z" fill="#EB303A"/>
<path d="M52.3034 52.5036L63.8382 45.9217C65.3355 45.0649 65.3355 42.9327 63.8382 42.0759L52.3034 35.4941C50.8061 34.6373 48.9345 35.7083 48.9345 37.417V50.5806C48.9345 52.2894 50.8061 53.3555 52.3034 52.5036Z" fill="#EB303A"/>
</svg>
